# xmcd
#
# Track frame offsets:
#	150
#	18374
#	38100
#	53788
#	68975
#	86082
#	100484
#	111748
#	128785
#	146610
#	164834
#	184560
#	200248
#	215435
#	232542
#	246944
#	258208
#	275245
#
# Disc length: 3907
#
# Revision: 1
# Processed by: cddbd v1.5.2PL0 Copyright (c) Steve Scherf et al.
# Submitted via: kJams Pro (development) 1.0patch45.9
#
DISCID=140f4112
DTITLE=Various Artist - NSC 3021
DYEAR=1995
DGENRE=Country
TTITLE0=Jo Dee Messina  and Tim McGraw - Bring On The Rain
TTITLE1=David Ball - Riding With Private Ryan
TTITLE2=Sara Evans - Saints And Angels
TTITLE3=Clint Black and Lisa Hartman - Easy For Me To Say
TTITLE4=Brooks and Dunn - The Long Goodbye
TTITLE5=Blake Shelton - All Over Me
TTITLE6=Dixie Chicks - Some Days You Gotta Dance
TTITLE7=Rascal Flatts - I'm Movin On
TTITLE8=Chris Cagle - I Breathe In, I Breath Out
TTITLE9=Jo Dee Messina and Tim McGraw - Vocals - Bring On The Rain
TTITLE10=David Ball - Vocals - Riding With Private Ryan 
TTITLE11=Sara Evans - Vocals - Saints And Angels
TTITLE12=Clint Black and Lisa Hartman - Vocals - Easy For Me To Say
TTITLE13=Brooks and Dunn - Vocals - The Long Goodbye
TTITLE14=Blake Shelton - Vocals - All Over Me
TTITLE15=Dixie Chicks - Vocals - Some Days You Gotta Dance
TTITLE16=Rascals Flatts - Vocals - I'm Movin On
TTITLE17=Chris Cagle - Vocals - I Breathe In, I Breathe Out
EXTD=
EXTT0=
EXTT1=
EXTT2=
EXTT3=
EXTT4=
EXTT5=
EXTT6=
EXTT7=
EXTT8=
EXTT9=
EXTT10=
EXTT11=
EXTT12=
EXTT13=
EXTT14=
EXTT15=
EXTT16=
EXTT17=
PLAYORDER=
